<?xml version="1.0" encoding="UTF-8"?><svg id="Layer_1" xmlns="http://www.w3.org/2000/svg" viewBox="0 0 1920 1080"><defs><style>.cls-1{fill:#00a651;stroke-width:0px;}</style></defs><path class="cls-1" d="m-84,281c134.407-56.291,283.319-81.161,428.573-65.054,72.666,7.982,144.099,26.346,212.547,51.81,205.493,76.594,383.647,211.327,589.987,285.819,264.844,97.624,521.23,70.547,774.072-48.16,17.989-8.638,22.919-11.246,37.822-18.415-10.028,4.935-32.219,16.315-41.338,20.816,0,0-3.819,1.765-3.819,1.765,0,0-15.281,7.059-15.281,7.059-132.197,61.364-276.66,99.929-422.942,100.965-123.889,1.578-247.189-24.76-362.023-70.574-198.815-77.809-372.898-207.942-574.052-280.196-68.405-24.444-139.726-41.817-212.132-48.533-139.539-13.437-281.651,10.461-411.414,62.698h0Z"/><path class="cls-1" d="m-100,433c329.799-161.861,748.329-285.965,1086.041-79.754,52.37,31.489,101.176,68.904,148.495,107.434,79.967,65.062,159.38,134.098,255.793,173.518,0,0,16.992,6.542,16.992,6.542,1.422.529,2.819,1.127,4.261,1.599,6.207,2.036,15.268,5.152,21.603,7.162,7.485,2.022,18.624,5.499,26.342,7.208,0,0,17.742,4.114,17.742,4.114,8.186,1.579,16.442,2.996,24.638,4.513,7.354.988,17.466,2.328,24.837,3.303,1.508.178,3.024.283,4.536.429,0,0,9.077.815,9.077.815,162.304,14.21,321.327-48.341,454.725-136.856,20.376-13.414,40.334-27.468,59.918-42.028-19.402,14.802-39.191,29.106-59.415,42.783-101.011,68.073-214.793,121.235-336.46,137.361-75.777,10.233-154.025,5.067-227.416-16.791-49.698-15.079-97.208-38.619-140.819-66.658-79.59-51.528-148.891-116.808-224.819-173.128-32.707-24.427-67.294-47.52-102.793-67.695C628.86,157.228,224.219,279.521-100,433h0Z"/></svg>